<?xml version="1.0" standalone="no"?>
<!DOCTYPE svg PUBLIC "-//W3C//DTD SVG 20010904//EN"
 "http://www.w3.org/TR/2001/REC-SVG-20010904/DTD/svg10.dtd">
<svg version="1.0" xmlns="http://www.w3.org/2000/svg"
 width="362.000000pt" height="266.000000pt" viewBox="0 0 362.000000 266.000000"
 preserveAspectRatio="xMidYMid meet">

<g transform="translate(0.000000,266.000000) scale(0.100000,-0.100000)"
fill="#000000" stroke="none">
<path d="M600 2245 c0 -7 1212 -1065 1220 -1065 6 0 1141 988 1195 1041 l30
29 -1223 0 c-672 0 -1222 -2 -1222 -5z"/>
<path d="M350 1280 c0 -435 4 -790 8 -788 14 5 892 791 891 797 0 7 -847 748
-879 770 -20 13 -20 9 -20 -779z"/>
<path d="M2865 1709 c-225 -198 -425 -373 -443 -389 l-34 -28 442 -393 c243
-217 446 -396 451 -397 5 -2 9 302 9 782 0 432 -3 786 -7 785 -5 0 -192 -162
-418 -360z"/>
<path d="M2030 979 c-205 -181 -215 -181 -418 -3 -73 64 -138 114 -145 111 -7
-2 -198 -170 -426 -373 l-414 -369 596 -3 c327 -1 866 -1 1197 0 l602 3 -421
375 c-232 206 -425 376 -429 377 -4 1 -68 -52 -142 -118z"/>
</g>
</svg>
